<?xml version="1.0" standalone="no"?>
<!DOCTYPE svg PUBLIC "-//W3C//DTD SVG 20010904//EN"
 "http://www.w3.org/TR/2001/REC-SVG-20010904/DTD/svg10.dtd">
<svg version="1.0" xmlns="http://www.w3.org/2000/svg"
 width="76.000000pt" height="117.000000pt" viewBox="0 0 76.000000 117.000000"
 preserveAspectRatio="xMidYMid meet">

<g transform="translate(0.000000,117.000000) scale(0.100000,-0.100000)"
fill="#007DFE" stroke="none">
<path d="M330 1114 c-47 -20 -74 -47 -95 -94 -11 -24 -25 -40 -38 -42 -17 -2
-30 -31 -74 -163 -29 -88 -53 -163 -53 -167 0 -5 25 -8 55 -8 l55 0 0 -299 c0
-263 2 -300 16 -305 20 -8 358 -8 378 0 14 5 16 42 16 305 l0 299 59 0 59 0
-56 170 c-51 153 -59 170 -79 170 -17 0 -27 10 -38 37 -21 50 -42 72 -90 94
-48 22 -69 23 -115 3z m138 -47 c22 -20 52 -68 52 -82 0 -3 -61 -5 -135 -5
-112 0 -135 3 -135 15 0 19 58 84 84 96 34 14 107 1 134 -24z m112 -692 l0
-265 -195 0 -195 0 0 265 0 265 195 0 195 0 0 -265z m-170 -300 c0 -20 -5 -25
-25 -25 -20 0 -25 5 -25 25 0 20 5 25 25 25 20 0 25 -5 25 -25z"/>
<path d="M370 75 c0 -8 7 -15 15 -15 8 0 15 7 15 15 0 8 -7 15 -15 15 -8 0
-15 -7 -15 -15z"/>
</g>
</svg>
